<svg width="25" height="27" viewBox="0 0 25 27" fill="none" xmlns="http://www.w3.org/2000/svg">
<path d="M21.875 0H6.25C4.5924 0 3.00268 0.568927 1.83058 1.58162C0.65848 2.59432 0 3.96783 0 5.4V21.6C0 23.0322 0.65848 24.4057 1.83058 25.4184C3.00268 26.4311 4.5924 27 6.25 27H21.875C22.7038 27 23.4987 26.7155 24.0847 26.2092C24.6708 25.7028 25 25.0161 25 24.3V2.7C25 1.98392 24.6708 1.29716 24.0847 0.790812C23.4987 0.284463 22.7038 0 21.875 0ZM3.125 5.4C3.125 4.68392 3.45424 3.99716 4.04029 3.49081C4.62634 2.98446 5.4212 2.7 6.25 2.7H21.875V16.2H6.25C5.1485 16.204 4.06874 16.4652 3.125 16.956V5.4ZM6.25 24.3C5.4212 24.3 4.62634 24.0155 4.04029 23.5092C3.45424 23.0028 3.125 22.3161 3.125 21.6C3.125 20.8839 3.45424 20.1972 4.04029 19.6908C4.62634 19.1845 5.4212 18.9 6.25 18.9H21.875V24.3H6.25ZM9.375 8.1H15.625C16.0394 8.1 16.4368 7.95777 16.7299 7.70459C17.0229 7.45142 17.1875 7.10804 17.1875 6.75C17.1875 6.39196 17.0229 6.04858 16.7299 5.79541C16.4368 5.54223 16.0394 5.4 15.625 5.4H9.375C8.9606 5.4 8.56317 5.54223 8.27015 5.79541C7.97712 6.04858 7.8125 6.39196 7.8125 6.75C7.8125 7.10804 7.97712 7.45142 8.27015 7.70459C8.56317 7.95777 8.9606 8.1 9.375 8.1Z" fill="#3582A2"/>
</svg>
