<svg width="32" height="31" viewBox="0 0 32 31" fill="none" xmlns="http://www.w3.org/2000/svg">
<path d="M18.6666 2.58325H7.99998C7.29274 2.58325 6.61446 2.85542 6.11436 3.33989C5.61426 3.82436 5.33331 4.48144 5.33331 5.16659V25.8333C5.33331 26.5184 5.61426 27.1755 6.11436 27.6599C6.61446 28.1444 7.29274 28.4166 7.99998 28.4166H24C24.7072 28.4166 25.3855 28.1444 25.8856 27.6599C26.3857 27.1755 26.6666 26.5184 26.6666 25.8333V10.3333L18.6666 2.58325Z" stroke="#3582A2" stroke-width="2" stroke-linecap="round" stroke-linejoin="round"/>
<path d="M18.6667 2.58325V10.3333H26.6667" stroke="#3582A2" stroke-width="2" stroke-linecap="round" stroke-linejoin="round"/>
<path d="M21.3334 16.7917H10.6667" stroke="#3582A2" stroke-width="2" stroke-linecap="round" stroke-linejoin="round"/>
<path d="M21.3334 21.9583H10.6667" stroke="#3582A2" stroke-width="2" stroke-linecap="round" stroke-linejoin="round"/>
<path d="M13.3334 11.625H12H10.6667" stroke="#3582A2" stroke-width="2" stroke-linecap="round" stroke-linejoin="round"/>
</svg>
