<svg width="24" height="25" viewBox="0 0 24 25" fill="none" xmlns="http://www.w3.org/2000/svg">
<path d="M8.76675 22.1178V18.6678C8.76673 17.7902 9.50864 17.0772 10.4278 17.0713H13.7949C14.7185 17.0713 15.4673 17.7861 15.4673 18.6678V22.1285C15.467 22.8736 16.09 23.4825 16.8702 23.5H19.1149C21.3526 23.5 23.1667 21.7683 23.1667 19.6321V9.81756C23.1547 8.97718 22.7414 8.18802 22.0443 7.67466L14.3673 1.77096C13.0224 0.743012 11.1106 0.743012 9.76565 1.77096L2.12236 7.68538C1.42264 8.19665 1.00862 8.98712 1 9.82828V19.6321C1 21.7683 2.81402 23.5 5.05173 23.5H7.29646C8.09608 23.5 8.7443 22.8812 8.7443 22.1178" stroke="white" stroke-width="1.5" stroke-linecap="round" stroke-linejoin="round"/>
</svg>
